<svg width="45" height="33" viewBox="0 0 45 33" fill="none" xmlns="http://www.w3.org/2000/svg">
<path d="M38.7643 3.65916C34.8686 0.553193 28.7084 0.0270275 28.448 0.00470539C28.0366 -0.0303722 27.6461 0.200822 27.4773 0.57392C27.4709 0.586676 27.127 1.57682 26.7943 2.53189C31.3216 3.31795 34.3977 5.06226 34.5616 5.15793C35.3298 5.60118 35.587 6.57857 35.1386 7.33912C34.8412 7.84615 34.3029 8.12996 33.75 8.12996C33.4752 8.12996 33.1987 8.0614 32.9448 7.91471C32.8998 7.88761 28.387 5.33969 22.5032 5.33969C16.6179 5.33969 12.1034 7.8892 12.0584 7.91471C11.2918 8.35637 10.3082 8.09648 9.86304 7.33434C9.41786 6.57538 9.67661 5.60118 10.4416 5.15793C10.6055 5.06226 13.6929 3.31157 18.233 2.52711C17.8827 1.56088 17.5291 0.586676 17.5227 0.57392C17.3539 0.199227 16.9634 -0.03675 16.552 0.00470539C16.2916 0.0254331 10.1314 0.551598 6.18429 3.70061C4.12071 5.59162 0 16.6474 0 26.2061C0 26.3751 0.0433929 26.5393 0.128571 26.686C2.97482 31.6447 10.7341 32.9426 12.502 32.9984C12.5132 33 12.5229 33 12.5325 33C12.8443 33 13.1384 32.8517 13.3232 32.6014L15.2357 30.0312C11.0411 29.0283 8.82321 27.4514 8.68982 27.3541C7.97625 26.8327 7.82196 25.8346 8.3475 25.1251C8.87143 24.4187 9.87428 24.2625 10.5879 24.7807C10.6473 24.8189 14.7407 27.6618 22.5 27.6618C30.2898 27.6618 34.372 24.8078 34.4121 24.7791C35.1257 24.2657 36.1318 24.4203 36.6541 25.1315C37.1748 25.8394 37.0237 26.8311 36.3134 27.3509C36.18 27.4482 33.9734 29.0219 29.7884 30.0248L31.6768 32.5998C31.8616 32.8517 32.1557 32.9984 32.4675 32.9984C32.4787 32.9984 32.4884 32.9984 32.498 32.9968C34.2675 32.941 42.0268 31.6431 44.8714 26.6844C44.9566 26.5377 45 26.3735 45 26.2045C45 16.6474 40.8793 5.59162 38.7643 3.65916ZM16.0714 22.8785C14.2955 22.8785 12.8571 21.0943 12.8571 18.8924C12.8571 16.6905 14.2955 14.9063 16.0714 14.9063C17.8473 14.9063 19.2857 16.6905 19.2857 18.8924C19.2857 21.0943 17.8473 22.8785 16.0714 22.8785ZM28.9286 22.8785C27.1527 22.8785 25.7143 21.0943 25.7143 18.8924C25.7143 16.6905 27.1527 14.9063 28.9286 14.9063C30.7045 14.9063 32.1429 16.6905 32.1429 18.8924C32.1429 21.0943 30.7045 22.8785 28.9286 22.8785Z" fill="white"/>
</svg>
