<svg width="40" height="34" viewBox="0 0 40 34" fill="none" xmlns="http://www.w3.org/2000/svg">
<path d="M40 3.92636C38.5277 4.59357 36.9463 5.04257 35.2863 5.24509C36.9817 4.20894 38.2816 2.56838 38.8939 0.612267C37.3093 1.57149 35.5525 2.26853 33.6818 2.64531C32.1849 1.0173 30.0527 0 27.6928 0C23.1606 0 19.4869 3.75053 19.4869 8.37393C19.4869 9.03015 19.5608 9.67067 19.6992 10.2814C12.8795 9.93285 6.83358 6.59835 2.78451 1.53067C2.07992 2.76776 1.67532 4.2058 1.67532 5.74275C1.67532 8.64709 3.12296 11.2108 5.32441 12.7116C3.97985 12.6676 2.71374 12.2909 1.60763 11.6645C1.60763 11.7006 1.60763 11.7335 1.60763 11.7697C1.60763 15.8279 4.43521 19.2126 8.19045 19.9803C7.50279 20.1718 6.77666 20.2739 6.02746 20.2739C5.49979 20.2739 4.98442 20.2205 4.48444 20.1247C5.52902 23.4514 8.55967 25.8738 12.1503 25.9413C9.34272 28.1878 5.80439 29.527 1.95839 29.527C1.29687 29.527 0.643052 29.4877 0 29.4092C3.63217 31.7845 7.94431 33.1707 12.5795 33.1707C27.6743 33.1707 35.9263 20.4105 35.9263 9.34413C35.9263 8.98148 35.9186 8.6204 35.9032 8.26089C37.5078 7.07875 38.9 5.6046 40 3.92636Z" fill="white"/>
</svg>
